# xmcd CD database file
#
# Track frame offsets:
#	150
#	28137
#	41725
#	73555
#	96294
#	105066
#	126090
#	133330
#	141117
#	178826
#	198067
#	212776
#	228424
#	242775
#	265127
#
# Disc length: 3662 seconds
#
# Revision: 2
# Processed by: cddbd v1.5.2PL0 Copyright (c) Steve Scherf et al.
# Submitted via: CDex 1.51
#
DISCID=d90e4c0f
DTITLE=Lammas - Sea Changes
DYEAR=1999
DGENRE=Jazz
TTITLE0=Sea Changes
TTITLE1=First Chorale
TTITLE2=The Campout
TTITLE3=Fin
TTITLE4=Improvisation 1
TTITLE5=St. Bride's
TTITLE6=Chorale
TTITLE7=Interlude for Accordeon
TTITLE8=Water in the Rock
TTITLE9=Windie
TTITLE10=Improvisation 2
TTITLE11=What I Learned Today
TTITLE12=The Lapse of the Year
TTITLE13=Silver Beach
TTITLE14=Last Chorale
EXTD=YEAR: 1999
EXTT0=
EXTT1=
EXTT2=
EXTT3=
EXTT4=
EXTT5=
EXTT6=
EXTT7=
EXTT8=
EXTT9=
EXTT10=
EXTT11=
EXTT12=
EXTT13=
EXTT14=
PLAYORDER=
